<svg width="18" height="18" viewBox="0 0 18 18" fill="none" xmlns="http://www.w3.org/2000/svg">
<path d="M16.5 7.0875L9.6375 2.445C9.44918 2.31793 9.22718 2.25003 9 2.25C8.77517 2.25014 8.5556 2.3181 8.37 2.445L1.5 7.0875L2.295 8.25L3 7.7775V15C3 15.1989 3.07902 15.3897 3.21967 15.5303C3.36032 15.671 3.55109 15.75 3.75 15.75H7.5V12H10.5V15.75H14.25C14.4489 15.75 14.6397 15.671 14.7803 15.5303C14.921 15.3897 15 15.1989 15 15V7.7775L15.705 8.25L16.5 7.0875Z" fill="#0077B5"/>
<path d="M16.5 7.0875L9.6375 2.445C9.45069 2.31764 9.22985 2.24951 9.00375 2.24951C8.77766 2.24951 8.55681 2.31764 8.37 2.445L1.5 7.0875L2.295 8.25L3 7.7775V15C3 15.1989 3.07902 15.3897 3.21967 15.5303C3.36032 15.671 3.55109 15.75 3.75 15.75H8.25V12H9.75V15.75H14.25C14.4489 15.75 14.6397 15.671 14.7803 15.5303C14.921 15.3897 15 15.1989 15 15V7.7775L15.705 8.25L16.5 7.0875ZM13.5 14.25H11.25V11.25C11.25 11.0511 11.171 10.8603 11.0303 10.7197C10.8897 10.579 10.6989 10.5 10.5 10.5H7.5C7.30109 10.5 7.11032 10.579 6.96967 10.7197C6.82902 10.8603 6.75 11.0511 6.75 11.25V14.25H4.5V6.6675L9 3.6675L13.5 6.6675V14.25Z" fill="#0077B5"/>
</svg>
