<svg width="18" height="18" viewBox="0 0 18 18" fill="none" xmlns="http://www.w3.org/2000/svg">
<path d="M1.5 9.75H16.5V14.25C16.5 14.4489 16.421 14.6397 16.2803 14.7803C16.1397 14.921 15.9489 15 15.75 15H2.25C2.05109 15 1.86032 14.921 1.71967 14.7803C1.57902 14.6397 1.5 14.4489 1.5 14.25V9.75ZM16.5 6V9H1.5V6C1.5 5.80109 1.57902 5.61032 1.71967 5.46967C1.86032 5.32902 2.05109 5.25 2.25 5.25H5.25V4.5C5.25 3.90326 5.48705 3.33097 5.90901 2.90901C6.33097 2.48705 6.90326 2.25 7.5 2.25H10.5C11.0967 2.25 11.669 2.48705 12.091 2.90901C12.5129 3.33097 12.75 3.90326 12.75 4.5V5.25H15.75C15.9489 5.25 16.1397 5.32902 16.2803 5.46967C16.421 5.61032 16.5 5.80109 16.5 6ZM11.25 4.5C11.25 4.30109 11.171 4.11032 11.0303 3.96967C10.8897 3.82902 10.6989 3.75 10.5 3.75H7.5C7.30109 3.75 7.11032 3.82902 6.96967 3.96967C6.82902 4.11032 6.75 4.30109 6.75 4.5V5.25H11.25V4.5Z" fill="#8496A8"/>
<path d="M15.75 5.25H12.75V4.5C12.75 3.90326 12.5129 3.33097 12.091 2.90901C11.669 2.48705 11.0967 2.25 10.5 2.25H7.5C6.90326 2.25 6.33097 2.48705 5.90901 2.90901C5.48705 3.33097 5.25 3.90326 5.25 4.5V5.25H2.25C2.05109 5.25 1.86032 5.32902 1.71967 5.46967C1.57902 5.61032 1.5 5.80109 1.5 6V14.25C1.5 14.4489 1.57902 14.6397 1.71967 14.7803C1.86032 14.921 2.05109 15 2.25 15H15.75C15.9489 15 16.1397 14.921 16.2803 14.7803C16.421 14.6397 16.5 14.4489 16.5 14.25V6C16.5 5.80109 16.421 5.61032 16.2803 5.46967C16.1397 5.32902 15.9489 5.25 15.75 5.25ZM6.75 4.5C6.75 4.30109 6.82902 4.11032 6.96967 3.96967C7.11032 3.82902 7.30109 3.75 7.5 3.75H10.5C10.6989 3.75 10.8897 3.82902 11.0303 3.96967C11.171 4.11032 11.25 4.30109 11.25 4.5V5.25H6.75V4.5ZM15 13.5H3V9.75H15V13.5ZM15 9H3V6.75H15V9Z" fill="#8496A8"/>
</svg>
