<svg width="112" height="28" viewBox="0 0 112 28" fill="none" xmlns="http://www.w3.org/2000/svg">
<path d="M34.1895 15.8783V23.9167H30.0632V16.8467C30.0632 14.6883 28.8429 13.79 27.7053 13.79C26.9245 13.768 26.1668 14.0536 25.5987 14.5841C25.0306 15.1146 24.6985 15.8465 24.6754 16.6192C24.6695 16.7182 24.6695 16.8176 24.6754 16.9167V23.9167H20.6316V10.5H24.5221V12.3958H24.5752C24.9819 11.5733 26.7208 10.2083 29.0905 10.2083C31.4602 10.2083 34.1895 11.795 34.1895 15.8783ZM14.1474 23.9167H18.2737V10.5H14.1474V23.9167ZM16.2105 3.7625C15.7396 3.76825 15.281 3.91169 14.8923 4.17475C14.5036 4.43782 14.2022 4.80877 14.026 5.24094C13.8498 5.6731 13.8067 6.14718 13.9022 6.60352C13.9976 7.05986 14.2272 7.47809 14.5623 7.80558C14.8973 8.13307 15.3227 8.35519 15.785 8.44401C16.2473 8.53283 16.7258 8.48437 17.1603 8.30474C17.5948 8.1251 17.9659 7.82231 18.227 7.43445C18.488 7.0466 18.6273 6.59101 18.6274 6.125C18.6274 5.50616 18.3789 4.91267 17.9368 4.47508C17.4946 4.0375 16.8948 3.79167 16.2695 3.79167L16.2105 3.7625ZM112 2.04167V25.9583C112 26.4998 111.783 27.0191 111.396 27.402C111.009 27.7849 110.484 28 109.937 28H85.7684C85.2212 28 84.6965 27.7849 84.3095 27.402C83.9226 27.0191 83.7053 26.4998 83.7053 25.9583V2.04167C83.7053 1.50018 83.9226 0.980877 84.3095 0.59799C84.6965 0.215104 85.2212 0 85.7684 0L109.937 0C110.484 0 111.009 0.215104 111.396 0.59799C111.783 0.980877 112 1.50018 112 2.04167V2.04167ZM91.9579 10.5H87.8316V23.9167H91.9579V10.5ZM92.3116 6.125C92.3174 5.65202 92.1813 5.18797 91.9206 4.79151C91.6599 4.39505 91.2862 4.084 90.8469 3.89769C90.4075 3.71138 89.9222 3.65817 89.4523 3.74479C88.9824 3.83142 88.549 4.05399 88.2069 4.38435C87.8648 4.71472 87.6294 5.13805 87.5304 5.60081C87.4315 6.06357 87.4734 6.54498 87.6509 6.98417C87.8284 7.42336 88.1335 7.8006 88.5277 8.06819C88.9218 8.33577 89.3873 8.4817 89.8653 8.4875H89.8947C90.2044 8.49526 90.5126 8.44255 90.8017 8.33241C91.0907 8.22226 91.3551 8.05682 91.5795 7.84555C91.8039 7.63428 91.9841 7.38131 92.1097 7.10111C92.2353 6.8209 92.3039 6.51895 92.3116 6.2125V6.125ZM107.874 15.8783C107.874 11.795 105.144 10.2083 102.775 10.2083C100.405 10.2083 98.6484 11.5733 98.2594 12.3958H98.2063V10.5H94.3158V23.9167H98.4421V16.9167C98.4421 14.7642 99.9217 13.8075 101.36 13.8075C102.539 13.8075 103.747 14.7058 103.747 16.8642V23.9167H107.874V15.8783ZM4.71579 4.08333H0V23.9167H12.3789V19.8333H4.71579V4.08333ZM63.6632 17.3658V18.5325H53.6421C53.6494 18.6191 53.6713 18.7039 53.7069 18.7833C54.0488 19.9092 55.2808 20.86 57.0964 20.86C57.6691 20.8885 58.2407 20.7853 58.7664 20.5586C59.292 20.3319 59.7575 19.9878 60.1263 19.5533L63.1326 21.4083C62.4002 22.321 61.4608 23.0501 60.3906 23.5365C59.3204 24.023 58.1495 24.2531 56.9726 24.2083C53.0173 24.2083 49.5158 21.8283 49.5158 17.2608C49.5158 12.6933 53.0526 10.2083 56.8488 10.2083C60.6451 10.2083 63.6632 12.7225 63.6632 17.3658ZM59.5368 15.75C59.5368 14.35 58.6173 13.195 56.7368 13.195C54.9684 13.195 53.7364 14.3617 53.6421 15.75H59.5368ZM50.2585 10.5H45.2008L40.7562 15.9658H40.6737V4.08333H36.5474V23.9167H40.6737V17.5H40.7562L45.3069 23.9167H50.4766L44.9179 16.5842L50.2585 10.5ZM75.4526 4.08333H79.5789V23.9167H75.6884V22.1667H75.6354C75.1166 23.0533 73.7255 24.2025 71.2733 24.2025C68.3259 24.2025 64.8421 22.085 64.8421 17.2025C64.8421 12.81 67.8484 10.2317 71.2202 10.2317C72.0014 10.2204 72.7764 10.3702 73.496 10.6715C74.2155 10.9727 74.8638 11.4189 75.3996 11.9817H75.4526V4.08333ZM75.6295 17.2025C75.6412 16.7628 75.5653 16.325 75.4061 15.9143C75.2468 15.5036 75.0073 15.128 74.7013 14.8089C74.3953 14.4898 74.0287 14.2336 73.6226 14.0547C73.2165 13.8759 72.7787 13.778 72.3343 13.7667H72.2459C71.3807 13.7463 70.5427 14.0666 69.916 14.6572C69.2894 15.2479 68.9252 16.0605 68.9036 16.9167C68.9036 17.0042 68.9036 17.0858 68.9036 17.1733C68.8772 17.6023 68.9365 18.0322 69.0781 18.4386C69.2197 18.8449 69.4407 19.2196 69.7287 19.5414C70.0166 19.8631 70.3657 20.1256 70.7562 20.3138C71.1466 20.502 71.5707 20.6123 72.0042 20.6383H72.24C73.1494 20.626 74.0168 20.2575 74.6521 19.6135C75.2875 18.9695 75.6389 18.1025 75.6295 17.2025V17.2025Z" fill="#0077B5"/>
</svg>
