<svg width="18" height="18" viewBox="0 0 18 18" fill="none" xmlns="http://www.w3.org/2000/svg">
<path d="M15.75 6H6C5.80109 6 5.61032 6.07902 5.46967 6.21967C5.32902 6.36032 5.25 6.55109 5.25 6.75V14.25C5.25 14.4489 5.32902 14.6397 5.46967 14.7803C5.61032 14.921 5.80109 15 6 15H13.5L16.5 17.25V6.75C16.5 6.55109 16.421 6.36032 16.2803 6.21967C16.1397 6.07902 15.9489 6 15.75 6ZM12.75 12H9V11.25H12.75V12ZM13.5 9.75H8.25V9H13.5V9.75ZM12.75 3V4.5H4.5C4.30109 4.5 4.11032 4.57902 3.96967 4.71967C3.82902 4.86032 3.75 5.05109 3.75 5.25V11.25H2.25C2.05109 11.25 1.86032 11.171 1.71967 11.0303C1.57902 10.8897 1.5 10.6989 1.5 10.5V3C1.5 2.80109 1.57902 2.61032 1.71967 2.46967C1.86032 2.32902 2.05109 2.25 2.25 2.25H12C12.1989 2.25 12.3897 2.32902 12.5303 2.46967C12.671 2.61032 12.75 2.80109 12.75 3Z" fill="#8496A8"/>
<path d="M15.75 6H6C5.80109 6 5.61032 6.07902 5.46967 6.21967C5.32902 6.36032 5.25 6.55109 5.25 6.75V14.25C5.25 14.4489 5.32902 14.6397 5.46967 14.7803C5.61032 14.921 5.80109 15 6 15H13.5L16.5 17.25V6.75C16.5 6.55109 16.421 6.36032 16.2803 6.21967C16.1397 6.07902 15.9489 6 15.75 6ZM15 14.3325L13.89 13.5H6.75V7.5H15V14.3325ZM9 11.25H12.75V12H9V11.25ZM3 9.75H3.75V11.25H2.25C2.05109 11.25 1.86032 11.171 1.71967 11.0303C1.57902 10.8897 1.5 10.6989 1.5 10.5V3C1.5 2.80109 1.57902 2.61032 1.71967 2.46967C1.86032 2.32902 2.05109 2.25 2.25 2.25H12C12.1989 2.25 12.3897 2.32902 12.5303 2.46967C12.671 2.61032 12.75 2.80109 12.75 3V4.5H11.25V3.75H3V9.75ZM13.5 9.75H8.25V9H13.5V9.75Z" fill="#8496A8"/>
</svg>
