<svg width="18" height="18" viewBox="0 0 18 18" fill="none" xmlns="http://www.w3.org/2000/svg">
<path d="M14.205 10.5H3.79499L4.34249 6.33C4.49171 5.20064 5.04645 4.16406 5.90334 3.41341C6.76023 2.66277 7.86081 2.24928 8.99999 2.25C10.1392 2.24928 11.2397 2.66277 12.0966 3.41341C12.9535 4.16406 13.5083 5.20064 13.6575 6.33L14.205 10.5ZM15.705 14.25L14.4225 11.25H3.58499L2.29499 14.25C2.26588 14.3162 2.25057 14.3877 2.24999 14.46C2.249 14.5345 2.26281 14.6085 2.29063 14.6776C2.31846 14.7467 2.35973 14.8096 2.41207 14.8626C2.4644 14.9156 2.52674 14.9577 2.59548 14.9865C2.66422 15.0152 2.73799 15.03 2.81249 15.03H7.49999C7.49999 15.4278 7.65802 15.8094 7.93933 16.0907C8.22063 16.372 8.60216 16.53 8.99999 16.53C9.39781 16.53 9.77934 16.372 10.0606 16.0907C10.342 15.8094 10.5 15.4278 10.5 15.03H15.2025C15.2945 15.0292 15.3849 15.0055 15.4655 14.9611C15.5461 14.9167 15.6144 14.853 15.6642 14.7756C15.7141 14.6982 15.7439 14.6097 15.751 14.5179C15.7581 14.4262 15.7423 14.3341 15.705 14.25Z" fill="#8496A8"/>
<path d="M15.705 14.25L14.25 10.8675C14.25 10.8675 13.9425 8.5725 13.65 6.3225C13.4993 5.19578 12.9449 4.16201 12.0897 3.41306C11.2346 2.66412 10.1367 2.25086 8.99999 2.25C7.86081 2.24928 6.76023 2.66277 5.90334 3.41341C5.04645 4.16406 4.49171 5.20064 4.34249 6.33L3.74999 10.8675L2.29499 14.25C2.26588 14.3162 2.25057 14.3877 2.24999 14.46C2.249 14.5345 2.26281 14.6085 2.29063 14.6776C2.31846 14.7467 2.35973 14.8096 2.41207 14.8626C2.4644 14.9156 2.52674 14.9577 2.59548 14.9865C2.66422 15.0152 2.73799 15.03 2.81249 15.03H7.49999C7.49999 15.4278 7.65802 15.8094 7.93933 16.0907C8.22063 16.372 8.60216 16.53 8.99999 16.53C9.39781 16.53 9.77934 16.372 10.0606 16.0907C10.342 15.8094 10.5 15.4278 10.5 15.03H15.2025C15.2945 15.0292 15.3849 15.0055 15.4655 14.9611C15.5461 14.9167 15.6144 14.853 15.6642 14.7756C15.7141 14.6982 15.7439 14.6097 15.751 14.5179C15.7581 14.4262 15.7423 14.3341 15.705 14.25ZM8.99999 3.5625C9.79767 3.56278 10.5681 3.85263 11.1682 4.3782C11.7682 4.90377 12.1571 5.62931 12.2625 6.42C12.4725 7.995 12.6825 9.6825 12.7875 10.5H5.24999L5.73749 6.42C5.84288 5.62931 6.23173 4.90377 6.83179 4.3782C7.43185 3.85263 8.20231 3.56278 8.99999 3.5625ZM4.13999 13.5L5.11499 11.25H12.885L13.86 13.5H4.10999H4.13999Z" fill="#8496A8"/>
</svg>
